<svg width="150" height="150" viewBox="0 0 150 150" fill="none" xmlns="http://www.w3.org/2000/svg">
<path d="M56.7814 22.6255H30.6487V57.8182L56.7814 22.6255Z" fill="white"/>
<path d="M79.8214 22.6255H61.0759L30.6487 62.7927V102.96L67.6596 50.2L77.0905 58.2873L101.038 26.8291C95.2687 24.1473 88.1941 22.6255 79.8214 22.6255Z" fill="white"/>
<path d="M101.258 95.0474L97.1069 87.742C112.156 82.8238 119.905 71.0547 119.905 57.1947C119.905 44.8765 114.4 34.2656 103.585 28.1565L79.7832 70.4165L67.3323 60.4856L30.6487 105.695V128.124H63.7287V90.2765H63.8778L79.7705 120.626L101.258 95.0474Z" fill="white"/>
<path d="M103.2 98.4619L81.6123 124.146L83.6959 128.124H120.054L103.2 98.4619Z" fill="white"/>
</svg>
